<svg width="51" height="94" viewBox="0 0 51 94" fill="none" xmlns="http://www.w3.org/2000/svg">
<path d="M1.50085 1C1.50085 1 3.29172 5 5.50085 5C7.70999 5 9.50085 1 9.50085 1H15.0009C15.0009 1 16.7917 5 19.0009 5C21.21 5 23.0009 1 23.0009 1H28.5009C28.5009 1 30.2917 5 32.5009 5C34.71 5 36.5009 1 36.5009 1H42.0009C42.0009 1 43.7917 5 46.0009 5C48.21 5 50.0009 1 50.0009 1V17.5C50.0009 17.5 49 18.1716 49 19C49 19.8284 50.0009 20.5 50.0009 20.5V74.5C50.0009 74.5 49 75.296 49 76C49 76.704 50.0009 77.5 50.0009 77.5L50 93C50 93 48.2091 89 46 89C43.7909 89 42 93 42 93H36.5C36.5 93 34.7091 89 32.5 89C30.2909 89 28.5 93 28.5 93H23C23 93 21.2091 89 19 89C16.7909 89 15 93 15 93H9.5C9.5 93 7.70914 89 5.5 89C3.29086 89 1.5 93 1.5 93V77.5C1.5 77.5 2.66279 76.8114 2.5 75.9991C2.39157 75.4581 1.50085 74.5 1.50085 74.5V20.5C1.50085 20.5 2.50085 19.5523 2.50085 19C2.50085 18.4477 1.50085 17.5 1.50085 17.5V1Z" fill="#FDB20F"/>
<path d="M3.5 19H10.5M13 19H20M22.5 19H29.5M32 19H39M40.9991 19H47.9991M3.5 76H10.5M13 76H20M22.5 76H29.5M32 76H39M40.9991 76H47.9991M1.50085 1C1.50085 1 3.29172 5 5.50085 5C7.70999 5 9.50085 1 9.50085 1H15.0009C15.0009 1 16.7917 5 19.0009 5C21.21 5 23.0009 1 23.0009 1H28.5009C28.5009 1 30.2917 5 32.5009 5C34.71 5 36.5009 1 36.5009 1H42.0009C42.0009 1 43.7917 5 46.0009 5C48.21 5 50.0009 1 50.0009 1V17.5C50.0009 17.5 49 18.1716 49 19C49 19.8284 50.0009 20.5 50.0009 20.5V74.5C50.0009 74.5 49 75.296 49 76C49 76.704 50.0009 77.5 50.0009 77.5L50 93C50 93 48.2091 89 46 89C43.7909 89 42 93 42 93H36.5C36.5 93 34.7091 89 32.5 89C30.2909 89 28.5 93 28.5 93H23C23 93 21.2091 89 19 89C16.7909 89 15 93 15 93H9.5C9.5 93 7.70914 89 5.5 89C3.29086 89 1.5 93 1.5 93V77.5C1.5 77.5 2.66279 76.8114 2.5 75.9991C2.39157 75.4581 1.50085 74.5 1.50085 74.5V20.5C1.50085 20.5 2.50085 19.5523 2.50085 19C2.50085 18.4477 1.50085 17.5 1.50085 17.5V1Z" stroke="#1B2A54" stroke-width="2"/>
</svg>
